<svg width="24" height="24" viewBox="0 0 24 24" fill="none" xmlns="http://www.w3.org/2000/svg">
<path d="M21.98 12.32C21.98 15 19.86 17.17 17.24 17.17C15.68 17.17 14.32 16.39 13.46 15.21L13.44 15.23L12.49 13.93L11.54 15.23L11.53 15.22C10.66 16.39 9.3 17.17 7.74 17.17C5.12 17.17 3 15 3 12.32C3 11.23 3.36 10.23 3.96 9.42L3.95 9.41C3.95 9.41 10.91 1 12.49 1C14.07 1 21.03 9.41 21.03 9.41L21.02 9.42C21.62 10.23 21.98 11.23 21.98 12.32ZM10.91 18.78V17.17C10.91 16.27 11.62 15.55 12.49 15.55C13.36 15.55 14.07 16.27 14.07 17.17V18.78C14.95 18.78 15.65 19.51 15.65 20.4C15.65 21.29 14.95 22.02 14.07 22.02H10.91C10.03 22.02 9.33 21.29 9.33 20.4C9.33 19.51 10.03 18.78 10.91 18.78Z" fill="#B7BACD" fill-opacity="0.7"/>
</svg>
