<svg width="24" height="24" viewBox="0 0 24 24" fill="none" xmlns="http://www.w3.org/2000/svg">
<path d="M20.6 19.2H16.98L13.19 22.99C12.94 23.24 12.59 23.4 12.2 23.4C11.81 23.4 11.46 23.24 11.21 22.99L7.42 19.2H3.8C2.25 19.2 1 17.95 1 16.4V3.8C1 2.25 2.25 1 3.8 1H20.6C22.15 1 23.4 2.25 23.4 3.8V16.4C23.4 17.95 22.15 19.2 20.6 19.2ZM20.6 5.2C20.6 4.43 19.97 3.8 19.2 3.8H5.2C4.43 3.8 3.8 4.43 3.8 5.2V15C3.8 15.77 4.43 16.4 5.2 16.4H6.6H8C8.39 16.4 8.74 16.56 8.99 16.81L12.2 20.02L15.41 16.81C15.66 16.56 16.01 16.4 16.4 16.4H17.8H19.2C19.97 16.4 20.6 15.77 20.6 15V5.2ZM16.4 13.6H8C7.23 13.6 6.6 12.97 6.6 12.2C6.6 11.43 7.23 10.8 8 10.8H16.4C17.17 10.8 17.8 11.43 17.8 12.2C17.8 12.97 17.17 13.6 16.4 13.6ZM16.4 9.4H8C7.23 9.4 6.6 8.77 6.6 8C6.6 7.23 7.23 6.6 8 6.6H16.4C17.17 6.6 17.8 7.23 17.8 8C17.8 8.77 17.17 9.4 16.4 9.4Z" fill="white"/>
</svg>
