<svg width="24" height="24" viewBox="0 0 24 24" fill="none" xmlns="http://www.w3.org/2000/svg">
<path d="M21.95 9.77H21.97L19.47 21.02L19.45 21.01C19.32 21.57 18.85 22 18.25 22H5.75C5.15 22 4.68 21.57 4.55 21.01L4.53 21.02L2.03 9.77H2.05C2.03 9.68 2 9.59 2 9.5C2 8.81 2.56 8.25 3.25 8.25H5.75C5.75 4.8 8.55 2 12 2C15.45 2 18.25 4.8 18.25 8.25H20.75C21.44 8.25 22 8.81 22 9.5C22 9.59 21.97 9.68 21.95 9.77ZM12 4.5C9.93 4.5 8.25 6.18 8.25 8.25H15.75C15.75 6.18 14.07 4.5 12 4.5ZM17 13.25C16.31 13.25 15.75 12.69 15.75 12V10.75H8.25V12C8.25 12.69 7.69 13.25 7 13.25C6.31 13.25 5.75 12.69 5.75 12V10.75H4.81L6.75 19.5H17.25L19.19 10.75H18.25V12C18.25 12.69 17.69 13.25 17 13.25Z" fill="#B7BACD" fill-opacity="0.7"/>
</svg>
